{"accessors" : [{"bufferView" : 0, "byteOffset" : 0, "componentType" : 5123, "count" : 13866, "type" : "SCALAR", "max" : [13023], "min" : [0]}, {"bufferView" : 1, "byteOffset" : 0, "componentType" : 5126, "count" : 13024, "type" : "VEC3", "max" : [50.22222137451172, -3.117647171020508, 35.71428680419922], "min" : [-50, -5, -35.936805725097656], "name" : "POSITION"}, {"bufferView" : 1, "byteOffset" : 12, "componentType" : 5126, "count" : 13024, "type" : "VEC3", "max" : [0.9931079745292664, 1.0000044107437134, 0.9930900931358337], "min" : [-0.9931079745292664, 0.08324255794286728, -0.9930900931358337], "name" : "NORMAL"}, {"bufferView" : 0, "byteOffset" : 27732, "componentType" : 5123, "count" : 6, "type" : "SCALAR", "max" : [4], "min" : [0]}, {"bufferView" : 2, "byteOffset" : 0, "componentType" : 5126, "count" : 5, "type" : "VEC3", "max" : [50.22222137451172, -5, 35.71428680419922], "min" : [-50, -5, -35.936805725097656], "name" : "POSITION"}, {"bufferView" : 2, "byteOffset" : 12, "componentType" : 5126, "count" : 5, "type" : "VEC3", "max" : [0, -1.0000044107437134, -0], "min" : [0, -1.0000044107437134, -0], "name" : "NORMAL"}], "asset" : {"generator" : "Aspose.3D 23.1", "version" : "2.0"}, "buffers" : [{"uri" : "data:application/octet-stream;base64,", "byteLength" : 360684}], "bufferViews" : [{"buffer" : 0, "byteOffset" : 0, "byteLength" : 27744, "target" : 34963}, {"buffer" : 0, "byteOffset" : 27748, "byteLength" : 332784, "byteStride" : 24, "target" : 34962}, {"buffer" : 0, "byteOffset" : 360536, "byteLength" : 144, "byteStride" : 24, "target" : 34962}], "materials" : [{"name" : "mat0", "pbrMetallicRoughness" : {"baseColorFactor" : [0.8627451062202454, 0.8627451062202454, 0.8627451062202454, 1], "metallicFactor" : 0, "roughnessFactor" : 0.4000000059604645}, "emissiveFactor" : [0, 0, 0], "alphaMode" : "OPAQUE", "doubleSided" : true}, {"name" : "mat1", "pbrMetallicRoughness" : {"baseColorFactor" : [0.8627451062202454, 0.8627451062202454, 0.8627451062202454, 1], "metallicFactor" : 0, "roughnessFactor" : 0.4000000059604645}, "emissiveFactor" : [0, 0, 0], "alphaMode" : "OPAQUE", "doubleSided" : true}], "meshes" : [{"primitives" : [{"attributes" : {"POSITION" : 1, "NORMAL" : 2}, "indices" : 0, "material" : 0, "mode" : 4}]}, {"primitives" : [{"attributes" : {"POSITION" : 4, "NORMAL" : 5}, "indices" : 3, "material" : 1, "mode" : 4}]}], "nodes" : [{"mesh" : 0, "name" : "imagetostl_mesh0"}, {"mesh" : 1, "name" : "imagetostl_mesh1"}], "scene" : 0, "scenes" : [{"nodes" : [0, 1]}]}